<svg width="15" height="17" viewBox="0 0 15 17" fill="none" xmlns="http://www.w3.org/2000/svg">
<g clip-path="url(#clip0)">
<path d="M12.2 7.04019V14.4002C12.2 14.6103 12.1638 14.8184 12.0934 15.0125C12.0231 15.2066 11.9199 15.383 11.7899 15.5316C11.6599 15.6801 11.5056 15.798 11.3357 15.8784C11.1659 15.9588 10.9838 16.0002 10.8 16.0002H2.4C2.02869 16.0002 1.6726 15.8316 1.41005 15.5316C1.1475 15.2315 1 14.8245 1 14.4002V4.8002C1 4.37585 1.1475 3.96888 1.41005 3.66883C1.6726 3.36877 2.02869 3.2002 2.4 3.2002H8.26178" stroke="#FEFEFF" stroke-linecap="round" stroke-linejoin="round"/>
<path d="M14.8578 0.210011C14.8067 0.145788 14.7447 0.0940819 14.6756 0.0580178C14.6064 0.0219537 14.5316 0.00228046 14.4557 0.000186754C14.3797 -0.00190695 14.3042 0.0136224 14.2336 0.0458364C14.1631 0.0780505 14.0989 0.12628 14.0451 0.187611L13.6122 0.680011C13.5597 0.740016 13.5302 0.821378 13.5302 0.90621C13.5302 0.991043 13.5597 1.07241 13.6122 1.13241L14.0091 1.58521C14.0351 1.61508 14.066 1.63879 14.1001 1.65496C14.1341 1.67114 14.1707 1.67946 14.2075 1.67946C14.2444 1.67946 14.2809 1.67114 14.315 1.65496C14.349 1.63879 14.38 1.61508 14.406 1.58521L14.8281 1.10521C15.0416 0.86161 15.0615 0.464811 14.8578 0.210011ZM12.7368 1.68001L6.41866 8.888C6.38035 8.93161 6.35251 8.98574 6.33781 9.0452L6.04556 10.04C6.03856 10.067 6.03806 10.0957 6.04412 10.1229C6.05019 10.1502 6.06258 10.1751 6.08 10.1951C6.09742 10.215 6.11922 10.2291 6.14309 10.2361C6.16697 10.243 6.19204 10.2424 6.21566 10.2344L7.08541 9.9004C7.13744 9.8836 7.18481 9.85178 7.22296 9.808L13.5299 2.58641C13.5883 2.51901 13.621 2.42802 13.621 2.33321C13.621 2.2384 13.5883 2.14741 13.5299 2.08001L13.1817 1.68001C13.1226 1.61272 13.0427 1.57493 12.9593 1.57493C12.8759 1.57493 12.7959 1.61272 12.7368 1.68001Z" fill="#FEFEFF"/>
</g>
<defs>
<clipPath id="clip0">
<rect width="15" height="17" fill="white"/>
</clipPath>
</defs>
</svg>
