<svg width="16" height="18" viewBox="0 0 16 18" fill="none" xmlns="http://www.w3.org/2000/svg">
<path d="M2.27271 3.46191L3.06816 15.7696C3.10594 16.4808 3.64088 17.0004 4.34088 17.0004H11.6591C12.3619 17.0004 12.8869 16.4808 12.9318 15.7696L13.7273 3.46191" stroke="#FEFEFF" stroke-linecap="round" stroke-linejoin="round"/>
<path d="M1 3.46191H15" stroke="#FEFEFF" stroke-miterlimit="10" stroke-linecap="round"/>
<path d="M10.8636 5.92308L10.5454 14.5385L10.8636 5.92308ZM5.45453 3.46154V1.92308C5.45417 1.80176 5.47861 1.68157 5.52645 1.56941C5.57429 1.45726 5.64458 1.35536 5.73329 1.26957C5.82201 1.18379 5.92738 1.11581 6.04336 1.06955C6.15933 1.02328 6.28362 0.999653 6.40908 1H9.5909C9.71635 0.999653 9.84064 1.02328 9.95662 1.06955C10.0726 1.11581 10.178 1.18379 10.2667 1.26957C10.3554 1.35536 10.4257 1.45726 10.4735 1.56941C10.5214 1.68157 10.5458 1.80176 10.5454 1.92308V3.46154H5.45453ZM7.99999 5.92308V14.5385V5.92308ZM5.13635 5.92308L5.45453 14.5385L5.13635 5.92308Z" stroke="#FEFEFF" stroke-linecap="round" stroke-linejoin="round"/>
</svg>
