<svg width="103" height="40" viewBox="0 0 103 40" fill="none" xmlns="http://www.w3.org/2000/svg">
<path d="M31.9048 1.21436H10.8066C8.34149 1.21547 6.34317 3.21352 6.34233 5.67864V7.60721H4.24411C3.75081 7.60721 3.35126 8.00705 3.35126 8.50007C3.35126 8.9931 3.75081 9.39293 4.24411 9.39293H6.33312V15.2501H4.24411C3.75081 15.2501 3.35126 15.6496 3.35126 16.1429C3.35126 16.636 3.75081 17.0358 4.24411 17.0358H6.33312V22.8929H4.24411C3.75081 22.8929 3.35126 23.2928 3.35126 23.7858C3.35126 24.2791 3.75081 24.6786 4.24411 24.6786H6.33312V30.5358H4.24411C3.75081 30.5358 3.35126 30.9356 3.35126 31.4286C3.35126 31.9217 3.75081 32.3215 4.24411 32.3215H6.33312V34.2501C6.33424 36.7152 8.33228 38.7132 10.7974 38.7144H31.8956C34.3607 38.7132 36.3594 36.7152 36.3599 34.2501V5.67864C36.3635 3.21519 34.3683 1.21603 31.9048 1.21436V1.21436ZM34.5834 34.2501C34.5789 35.7275 33.3822 36.9245 31.9048 36.9286H10.8066C9.32922 36.9245 8.13223 35.7275 8.12804 34.2501V32.3215H10.2171C10.7104 32.3215 11.1099 31.9217 11.1099 31.4286C11.1099 30.9356 10.7104 30.5358 10.2171 30.5358H8.12804V24.6786H10.2171C10.7104 24.6786 11.1099 24.2791 11.1099 23.7858C11.1099 23.2928 10.7104 22.8929 10.2171 22.8929H8.12804V17.0358H10.2171C10.7104 17.0358 11.1099 16.636 11.1099 16.1429C11.1099 15.6496 10.7104 15.2501 10.2171 15.2501H8.12804V9.39293H10.2171C10.7104 9.39293 11.1099 8.9931 11.1099 8.50007C11.1099 8.00705 10.7104 7.60721 10.2171 7.60721H8.12804V5.67864C8.13223 4.20124 9.32922 3.00426 10.8066 3.00007H31.9048C33.3822 3.00426 34.5789 4.20124 34.5834 5.67864V34.2501Z" fill="black"/>
<path d="M21.3513 19.7056C23.7428 19.7056 25.6816 17.767 25.6816 15.3753C25.6816 12.9835 23.7428 11.0449 21.3513 11.0449C18.9596 11.0449 17.0209 12.9835 17.0209 15.3753C17.0232 17.7659 18.9604 19.7034 21.3513 19.7056V19.7056ZM21.3513 12.8217C22.7564 12.8217 23.8959 13.9612 23.8959 15.3663C23.8959 16.7715 22.7564 17.911 21.3513 17.911C19.9459 17.911 18.8066 16.7715 18.8066 15.3663C18.8092 13.9623 19.9467 12.8242 21.3513 12.8217V12.8217Z" fill="black"/>
<path d="M21.3513 21.1426C17.637 21.1426 14.726 24.1515 14.726 27.9997C14.7274 28.4922 15.1264 28.8912 15.6189 28.8926H27.0834C27.5759 28.8912 27.9749 28.4922 27.9763 27.9997C27.9763 24.1515 25.0653 21.1426 21.3513 21.1426V21.1426ZM16.5832 27.1069C16.9674 24.6694 18.887 22.9283 21.3513 22.9283C23.8153 22.9283 25.7442 24.6694 26.1192 27.1069H16.5832Z" fill="black"/>
<path d="M41.42 28V14H43.54V28H41.42ZM46.3009 28V18.08H48.1809L48.3609 19.48C48.6809 18.9733 49.1009 18.5733 49.6209 18.28C50.1543 17.9867 50.7676 17.84 51.4609 17.84C53.0343 17.84 54.1276 18.46 54.7409 19.7C55.1009 19.1267 55.5809 18.6733 56.1809 18.34C56.7943 18.0067 57.4543 17.84 58.1609 17.84C59.4009 17.84 60.3743 18.2133 61.0809 18.96C61.7876 19.7067 62.1409 20.82 62.1409 22.3V28H60.0209V22.52C60.0209 20.6 59.2876 19.64 57.8209 19.64C57.0743 19.64 56.4609 19.92 55.9809 20.48C55.5143 21.04 55.2809 21.84 55.2809 22.88V28H53.1609V22.52C53.1609 20.6 52.4209 19.64 50.9409 19.64C50.2076 19.64 49.6009 19.92 49.1209 20.48C48.6543 21.04 48.4209 21.84 48.4209 22.88V28H46.3009ZM69.2613 28.24C68.2879 28.24 67.4213 28.0267 66.6613 27.6C65.9146 27.16 65.3279 26.5533 64.9013 25.78C64.4746 25.0067 64.2613 24.1067 64.2613 23.08C64.2613 22.04 64.4679 21.1267 64.8813 20.34C65.3079 19.5533 65.8946 18.94 66.6413 18.5C67.4013 18.06 68.2813 17.84 69.2813 17.84C70.2546 17.84 71.1013 18.06 71.8213 18.5C72.5413 18.9267 73.1013 19.5 73.5013 20.22C73.9013 20.94 74.1013 21.7333 74.1013 22.6C74.1013 22.7333 74.0946 22.88 74.0813 23.04C74.0813 23.1867 74.0746 23.3533 74.0613 23.54H66.3413C66.4079 24.5 66.7213 25.2333 67.2813 25.74C67.8546 26.2333 68.5146 26.48 69.2613 26.48C69.8613 26.48 70.3613 26.3467 70.7613 26.08C71.1746 25.8 71.4813 25.4267 71.6813 24.96H73.8013C73.5346 25.8933 73.0013 26.6733 72.2013 27.3C71.4146 27.9267 70.4346 28.24 69.2613 28.24ZM69.2613 19.58C68.5546 19.58 67.9279 19.7933 67.3813 20.22C66.8346 20.6333 66.5013 21.26 66.3813 22.1H71.9813C71.9413 21.3267 71.6679 20.7133 71.1613 20.26C70.6546 19.8067 70.0213 19.58 69.2613 19.58ZM76.3009 28V18.08H78.1809L78.3409 19.82C78.6476 19.2067 79.0943 18.7267 79.6809 18.38C80.2809 18.02 80.9676 17.84 81.7409 17.84C82.9409 17.84 83.8809 18.2133 84.5609 18.96C85.2543 19.7067 85.6009 20.82 85.6009 22.3V28H83.5009V22.52C83.5009 20.6 82.7143 19.64 81.1409 19.64C80.3543 19.64 79.7009 19.92 79.1809 20.48C78.6743 21.04 78.4209 21.84 78.4209 22.88V28H76.3009ZM89.2978 16.2C88.8978 16.2 88.5645 16.08 88.2978 15.84C88.0445 15.5867 87.9178 15.2733 87.9178 14.9C87.9178 14.5267 88.0445 14.22 88.2978 13.98C88.5645 13.7267 88.8978 13.6 89.2978 13.6C89.6978 13.6 90.0245 13.7267 90.2778 13.98C90.5445 14.22 90.6778 14.5267 90.6778 14.9C90.6778 15.2733 90.5445 15.5867 90.2778 15.84C90.0245 16.08 89.6978 16.2 89.2978 16.2ZM88.2378 28V18.08H90.3578V28H88.2378ZM93.1564 28V13.6H95.2764V22.18L99.0764 18.08H101.616L97.3964 22.58L102.236 28H99.5564L95.2764 22.92V28H93.1564Z" fill="black"/>
</svg>
