<svg width="686" height="506" viewBox="0 0 686 506" fill="none" xmlns="http://www.w3.org/2000/svg">
<g clip-path="url(#clip0)">
<path d="M344.011 407.788C299.993 407.788 257.337 393.423 223.311 367.142C189.285 340.862 165.993 304.29 157.406 263.659C148.819 223.028 155.466 180.852 176.216 144.317C196.966 107.782 230.535 79.1485 271.202 63.2952C311.869 47.4419 357.119 45.3499 399.241 57.3755C441.363 69.401 477.752 94.8002 502.207 129.245C526.662 163.69 537.67 205.05 533.356 246.278C529.041 287.505 509.671 326.049 478.546 355.342C460.919 372.021 439.953 385.245 416.86 394.247C393.767 403.25 369.006 407.852 344.011 407.788ZM344.011 50.8306C239.784 50.8306 154.989 130.634 154.989 228.726C154.989 326.818 239.784 406.621 344.011 406.621C448.238 406.621 533.032 326.818 533.032 228.726C533.032 130.634 448.238 50.8306 344.011 50.8306Z" fill="#3F3D56"/>
<path d="M360.036 388.015C356.513 400.273 344.445 407.864 344.445 407.864C344.445 407.864 338.089 395.582 341.613 383.325C345.136 371.067 357.204 363.476 357.204 363.476C357.204 363.476 363.56 375.758 360.036 388.015Z" fill="#0D6654"/>
<path d="M327.985 388.015C331.508 400.273 343.576 407.864 343.576 407.864C343.576 407.864 349.931 395.582 346.408 383.325C342.885 371.067 330.817 363.476 330.817 363.476C330.817 363.476 324.461 375.758 327.985 388.015Z" fill="#0D6654"/>
<path d="M333.162 385.381C342.83 394.239 344.01 407.855 344.01 407.855C344.01 407.855 329.517 407.11 319.849 398.253C310.181 389.395 309 375.779 309 375.779C309 375.779 323.494 376.524 333.162 385.381Z" fill="#3F3D56"/>
<path d="M354.859 385.381C345.191 394.239 344.011 407.855 344.011 407.855C344.011 407.855 358.504 407.11 368.172 398.253C377.84 389.395 379.021 375.779 379.021 375.779C379.021 375.779 364.527 376.524 354.859 385.381Z" fill="#3F3D56"/>
<path d="M327.985 70.1126C331.508 57.8551 343.576 50.2637 343.576 50.2637C343.576 50.2637 349.931 62.5457 346.408 74.8032C342.885 87.0607 330.817 94.6521 330.817 94.6521C330.817 94.6521 324.461 82.3701 327.985 70.1126Z" fill="#0D6654"/>
<path d="M360.036 70.1126C356.513 57.8551 344.445 50.2637 344.445 50.2637C344.445 50.2637 338.089 62.5457 341.613 74.8032C345.136 87.0607 357.204 94.6521 357.204 94.6521C357.204 94.6521 363.56 82.3701 360.036 70.1126Z" fill="#0D6654"/>
<path d="M354.859 72.7466C345.191 63.8893 344.011 50.2734 344.011 50.2734C344.011 50.2734 358.504 51.0182 368.172 59.8756C377.84 68.733 379.021 82.3488 379.021 82.3488C379.021 82.3488 364.527 81.604 354.859 72.7466Z" fill="#3F3D56"/>
<path d="M333.162 72.7466C342.83 63.8893 344.01 50.2734 344.01 50.2734C344.01 50.2734 329.517 51.0182 319.849 59.8756C310.181 68.733 309 82.3488 309 82.3488C309 82.3488 323.494 81.604 333.162 72.7466Z" fill="#3F3D56"/>
<path d="M255.439 7.69824H9.11819V243.434H255.439V7.69824Z" fill="#0D6654"/>
<path d="M246.131 13.6816H26.7036H14.2665V26.223V234.406H26.7036V26.223H246.131V13.6816Z" fill="#3F3D56"/>
<path opacity="0.3" d="M246.131 13.6816H26.7036H14.2665V26.223V234.406H26.7036V26.223H246.131V13.6816Z" fill="black"/>
<path opacity="0.1" d="M210.596 26.2236H200.824H26.7036V56.3223H200.824V234.407H246.131V26.2236H210.596Z" fill="black"/>
<path d="M0.0527344 0.304688V247.784H260.345V0.304688H0.0527344ZM246.131 234.406H14.2666V13.6819H246.131V234.406Z" fill="#3F3D56"/>
<path d="M182.722 256.907C182.722 256.907 194.492 278.369 201.113 283.216C207.733 288.062 190.446 293.947 190.446 293.947L170.216 264.177L182.722 256.907Z" fill="#A0616A"/>
<path d="M111.366 204.637C111.366 204.637 166.171 218.137 170.952 227.137C175.734 236.138 190.446 257.946 190.446 257.946L168.745 274.215L147.412 244.099L88.5619 219.176L111.366 204.637Z" fill="#2F2E41"/>
<path d="M188.607 285.293C188.607 285.293 183.458 281.139 181.987 283.908C180.515 286.678 176.101 300.87 176.101 300.87C176.101 300.87 182.354 306.409 195.228 302.947C195.228 302.947 198.538 300.524 203.688 302.947C208.837 305.37 227.963 300.524 227.228 292.562C226.492 284.601 206.998 285.293 206.998 285.293C206.998 285.293 198.787 276.636 197.743 279.926C196.699 283.216 198.17 283.562 198.17 283.562C198.17 283.562 191.55 290.139 188.607 285.293Z" fill="#2F2E41"/>
<path d="M125.711 278.023L122.033 307.101H140.056C140.056 307.101 138.585 284.601 138.952 281.831C139.32 279.062 125.711 278.023 125.711 278.023Z" fill="#A0616A"/>
<path d="M136.01 213.983C136.01 213.983 145.941 227.83 140.056 228.868C134.171 229.907 129.389 213.983 129.389 213.983H136.01Z" fill="#A0616A"/>
<path d="M60.9757 212.598C60.9757 212.598 53.6195 233.022 82.6768 238.561C111.734 244.099 120.562 248.599 120.562 248.599L124.24 283.908L149.619 285.293C149.619 285.293 161.757 231.637 145.941 224.714C130.125 217.791 96.6537 209.829 96.6537 209.829L60.9757 212.598Z" fill="#2F2E41"/>
<path d="M124.24 302.601C124.24 302.601 129.389 300.178 130.125 300.178C130.125 300.178 133.358 293.16 139.282 293.899L152.194 311.601C152.194 311.601 171.688 324.755 158.079 328.217C144.47 331.678 133.803 328.909 133.803 328.909L128.286 325.101C128.286 325.101 129.021 321.294 124.24 321.986C124.24 321.986 114.309 318.178 114.677 315.409C115.045 312.639 122.857 300.585 122.857 300.585L124.24 302.601Z" fill="#2F2E41"/>
<path d="M127.366 145.27C135.492 145.27 142.079 139.071 142.079 131.424C142.079 123.776 135.492 117.577 127.366 117.577C119.241 117.577 112.654 123.776 112.654 131.424C112.654 139.071 119.241 145.27 127.366 145.27Z" fill="#A0616A"/>
<path d="M115.412 127.097C115.412 127.097 102.171 136.097 99.5964 136.443C97.0217 136.789 111.734 153.751 111.734 153.751C111.734 153.751 118.723 143.02 123.136 141.636C127.55 140.251 115.412 127.097 115.412 127.097Z" fill="#A0616A"/>
<path d="M105.481 138.52C105.481 138.52 99.9641 131.597 96.6538 131.597C93.3434 131.597 63.5505 134.712 60.9758 157.905C58.4011 181.098 59.8724 221.599 59.8724 221.599C59.8724 221.599 57.6655 211.56 82.309 215.714C82.309 215.714 111.734 209.83 116.884 209.83C122.033 209.83 124.24 160.328 124.24 160.328L115.865 148.108C115.865 148.108 112.102 154.79 105.481 138.52Z" fill="#D0CDE1"/>
<path d="M118.723 157.559L124.24 160.328L130.86 198.406L140.056 218.137C140.056 218.137 130.125 214.92 129.389 218.778L114.677 198.752L118.723 157.559Z" fill="#D0CDE1"/>
<path d="M124.058 120.068L132.062 121.009C131.91 122.542 131.952 124.441 133.395 125.166C134.074 125.507 134.935 125.489 135.536 125.941C136.982 127.026 135.567 129.36 136.384 130.922L138.725 131.505C139.006 132 139.389 132.438 139.85 132.793C140.312 133.149 140.844 133.415 141.416 133.576C141.987 133.738 142.587 133.791 143.18 133.733C143.774 133.676 144.349 133.508 144.874 133.24C146.447 132.351 147.248 130.653 147.956 129.06C148.802 127.156 149.665 125.111 149.241 123.087C148.787 120.912 146.899 119.105 146.813 116.89C146.775 115.899 146.997 114.664 146.109 114.129C145.701 113.949 145.261 113.839 144.812 113.805C142.767 113.403 141.628 111.411 140.103 110.068C136.908 107.252 132 107.326 127.63 107.572C126.379 107.576 125.138 107.779 123.959 108.174C122.627 108.803 121.449 109.687 120.501 110.769C118.158 113.121 115.876 115.585 114.33 118.463C112.784 121.341 112.023 124.703 112.863 127.829C112.78 127.528 115.561 125.56 115.908 125.245C116.995 124.254 117.094 123.781 117.682 122.641C119.053 119.984 120.96 119.704 124.058 120.068Z" fill="#2F2E41"/>
<path opacity="0.1" d="M100.516 164.655L101.62 188.887L117.98 206.944L103.091 186.81L100.516 164.655Z" fill="black"/>
<path opacity="0.1" d="M71.0908 171.232L83.9641 199.272L100.516 212.08L82.8604 200.656L71.0908 171.232Z" fill="black"/>
<path d="M141.018 193.959L148.797 198.994C149.184 199.282 149.455 199.686 149.563 200.139C149.671 200.592 149.61 201.066 149.391 201.481L148.351 203.502L148.592 203.658L147.409 205.954L147.169 205.798L138.6 222.439C138.511 222.657 138.371 222.854 138.19 223.015C138.01 223.176 137.793 223.297 137.556 223.368C137.319 223.439 137.067 223.459 136.821 223.427C136.575 223.394 136.339 223.31 136.132 223.18L128.822 218.448C128.376 218.117 128.065 217.653 127.941 217.132C127.817 216.611 127.886 216.066 128.139 215.588L138.956 194.578C139.031 194.395 139.148 194.231 139.299 194.096C139.45 193.962 139.631 193.861 139.829 193.802C140.027 193.743 140.237 193.726 140.443 193.753C140.648 193.78 140.845 193.85 141.018 193.959Z" fill="#3F3D56"/>
<path d="M128.945 215.405L137.317 220.825L148.238 199.614L139.866 194.193L128.945 215.405Z" fill="white"/>
<path d="M125.31 210.735C125.31 210.735 139.899 220.251 134.815 223.227C129.731 226.203 119.14 212.995 119.14 212.995L125.31 210.735Z" fill="#A0616A"/>
<path d="M81.941 140.251C81.941 140.251 62.8147 145.443 68.3319 161.367C69.6628 165.208 71.2719 169.331 72.9476 173.377C78.2184 186.102 84.1479 198.06 84.1479 198.06L100.773 212.207L123.136 218.138L125.711 216.061C125.711 216.061 126.446 209.484 123.136 208.791C119.826 208.099 114.676 205.33 114.676 205.33L101.435 186.983C101.435 186.983 101.067 141.289 81.941 140.251Z" fill="#D0CDE1"/>
<path d="M445.48 412.911H685.936V182.788L445.48 182.788V412.911Z" fill="#0D6654"/>
<path d="M454.566 188.629H668.768H680.91V200.872V404.098H668.768V200.872H454.566V188.629Z" fill="#3F3D56"/>
<path opacity="0.3" d="M454.566 188.629H668.768H680.91V200.872V404.098H668.768V200.872H454.566V188.629Z" fill="black"/>
<path opacity="0.1" d="M489.255 200.872H498.794H668.768V230.254H498.794V404.099H454.566V200.872H489.255Z" fill="black"/>
<path d="M440.69 175.57V417.157H694.785V175.57H440.69ZM454.566 188.629H680.91V404.098H454.566V188.629Z" fill="#3F3D56"/>
<path d="M589.165 289.469C583.694 280.767 572.869 280.362 572.869 280.362C572.869 280.362 562.32 279.092 555.553 292.344C549.246 304.696 540.542 316.622 554.152 319.514L556.611 312.312L558.133 320.05C560.071 320.181 562.015 320.212 563.956 320.143C578.532 319.7 592.413 320.273 591.966 315.35C591.372 308.807 594.43 297.841 589.165 289.469Z" fill="#2F2E41"/>
<path d="M549.727 359.694L548.576 379.195L582.342 382.445L583.494 362.222L571.982 355.361L549.727 359.694Z" fill="#A0616A"/>
<path d="M640.474 402.487C639.461 393.275 599.261 389.093 589.6 388.22L585.988 386.237L584.836 374.681C584.836 374.681 549.152 371.792 546.466 371.431C543.78 371.07 541.478 375.764 541.478 376.848C541.478 377.631 540.976 383.222 538.96 386.536C534.606 389.828 521.333 400.187 521.333 404.112C521.333 408.807 531.885 467.85 531.885 467.85L533.036 480.128L543.78 481.934L543.012 443.655C543.012 443.655 546.85 421.627 541.478 415.488V412.96C541.478 412.96 557.234 409.096 562.787 404.89C564.396 404.565 568.917 403.763 571.415 404.46C571.757 404.65 572.152 404.845 572.591 405.043C572.647 405.091 572.7 405.142 572.75 405.196L572.793 405.133C579.977 408.298 598.404 412.289 605.94 411.154C611.753 410.319 617.695 411.336 622.823 414.043C618.603 419.099 621.672 433.544 621.672 433.544L622.056 464.6L627.428 470.739H634.718V453.766C634.718 453.766 641.625 412.96 640.474 402.487Z" fill="#2F2E41"/>
<path d="M569.488 313.29C576.481 313.29 582.151 307.955 582.151 301.373C582.151 294.791 576.481 289.456 569.488 289.456C562.495 289.456 556.826 294.791 556.826 301.373C556.826 307.955 562.495 313.29 569.488 313.29Z" fill="#A0616A"/>
<path d="M561.814 308.957C561.814 308.957 563.733 316.902 561.047 317.624C558.922 318.287 556.867 319.133 554.907 320.152L551.838 329.541V338.93L589.057 342.902L590.208 339.652V334.958L585.988 327.735L584.069 325.93C584.069 325.93 575.627 317.263 577.546 308.957H561.814Z" fill="#A0616A"/>
<path d="M595.005 337.666C595.005 337.666 596.156 350.305 595.005 356.083C593.853 361.861 594.237 370.528 594.237 370.528L585.796 369.083V349.583L587.714 339.11L595.005 337.666Z" fill="#A0616A"/>
<path d="M574.193 287.773C578.516 287.773 582.021 284.475 582.021 280.406C582.021 276.338 578.516 273.04 574.193 273.04C569.871 273.04 566.366 276.338 566.366 280.406C566.366 284.475 569.871 287.773 574.193 287.773Z" fill="#2F2E41"/>
<path d="M565.542 278.468C565.543 276.649 566.258 274.894 567.551 273.541C568.844 272.189 570.623 271.335 572.546 271.143C572.272 271.116 571.997 271.102 571.722 271.102C569.646 271.102 567.655 271.878 566.187 273.259C564.719 274.641 563.895 276.514 563.895 278.468C563.895 280.422 564.719 282.295 566.187 283.677C567.655 285.058 569.646 285.834 571.722 285.834C571.997 285.834 572.272 285.82 572.546 285.793C570.623 285.601 568.844 284.747 567.551 283.395C566.258 282.042 565.543 280.287 565.542 278.468Z" fill="#2F2E41"/>
<path d="M586.746 288.63L576.052 283.357L561.283 285.514L558.227 298.215L565.833 297.94L567.959 293.274V297.863L571.468 297.736L573.505 290.307L574.778 298.215L587.256 297.976L586.746 288.63Z" fill="#2F2E41"/>
<path d="M543.183 468.001C543.183 468.001 548.628 470.412 550.229 471.317C551.831 472.221 558.236 470.412 556.955 475.838C555.674 481.264 550.229 486.388 550.229 486.388C550.229 486.388 547.667 489.101 547.667 490.91C547.667 492.718 541.261 506.584 533.574 505.981C525.887 505.378 527.169 498.144 527.169 498.144L528.77 490.307C528.77 490.307 531.973 477.044 532.613 477.345C533.254 477.647 534.855 479.757 534.855 479.757C534.855 479.757 542.863 476.742 543.183 468.001Z" fill="#D0CDE1"/>
<path d="M623.037 458.973C623.037 458.973 617.592 461.384 615.99 462.288C614.389 463.193 607.983 461.384 609.265 466.81C610.546 472.236 615.99 477.36 615.99 477.36C615.99 477.36 618.553 480.073 618.553 481.881C618.553 483.69 624.958 497.556 632.645 496.953C640.332 496.35 639.051 489.116 639.051 489.116L637.449 481.278C637.449 481.278 634.247 468.016 633.606 468.317C632.966 468.618 631.364 470.728 631.364 470.728C631.364 470.728 623.357 467.714 623.037 458.973Z" fill="#D0CDE1"/>
<path d="M580.821 373.053V370.187H580.144V368.914C580.144 368.621 580.083 368.331 579.964 368.061C579.845 367.79 579.67 367.544 579.451 367.337C579.231 367.13 578.97 366.966 578.682 366.854C578.395 366.742 578.087 366.685 577.776 366.685H569.655C569.027 366.685 568.425 366.919 567.98 367.337C567.536 367.755 567.287 368.322 567.287 368.914V390.249C567.287 390.84 567.536 391.407 567.98 391.825C568.425 392.243 569.027 392.478 569.655 392.478H577.776C578.404 392.478 579.006 392.243 579.451 391.825C579.895 391.407 580.144 390.84 580.144 390.249V376.875H580.821V374.009H580.144V373.053H580.821Z" fill="#D0CDE1"/>
<path d="M574.054 374.328C574.801 374.328 575.407 373.757 575.407 373.054C575.407 372.351 574.801 371.78 574.054 371.78C573.306 371.78 572.701 372.351 572.701 373.054C572.701 373.757 573.306 374.328 574.054 374.328Z" fill="#3F3D56"/>
<path d="M540.134 331.527L533.228 358.25C533.228 358.25 530.542 364.028 536.681 367.639C542.82 371.251 556.634 375.945 556.634 375.945C556.634 375.945 568.912 391.834 570.447 385.334C571.982 378.834 561.238 370.528 561.238 370.528L542.437 359.334L549.727 340.555L540.134 331.527Z" fill="#A0616A"/>
<path d="M590.016 365.111C590.016 365.111 595.772 364.389 595.388 370.528C595.005 376.667 587.33 377.389 587.33 377.389C587.33 377.389 583.877 391.112 578.889 388.584C573.901 386.056 581.575 372.334 581.575 372.334L588.098 367.639L590.016 365.111Z" fill="#A0616A"/>
<path d="M552.989 329.18L559.128 317.263L546.849 321.235C546.849 321.235 539.943 324.485 539.559 332.069C539.175 339.652 548.384 343.624 548.384 343.624C548.384 343.624 549.919 354.458 549.152 355.903C548.384 357.347 549.152 363.125 549.152 363.125C549.152 363.125 563.924 359.333 571.215 364.028C578.505 368.722 584.453 366.014 584.453 366.014C584.453 366.014 584.069 356.986 587.139 355.541C590.208 354.097 592.894 347.236 590.208 342.902C590.208 342.902 596.348 343.624 595.964 338.208C595.58 332.791 592.51 328.096 587.522 325.93C582.534 323.763 581.983 323.417 581.983 323.417L589.057 335.68V338.93C589.057 338.93 576.533 331.407 564.143 330.78C560.101 330.606 556.131 331.835 552.989 334.235L552.989 334.235V329.18Z" fill="#2F2E41"/>
</g>
<defs>
<clipPath id="clip0">
<rect width="694.733" height="505.695" fill="white" transform="translate(0.0527344 0.304688)"/>
</clipPath>
</defs>
</svg>
